<svg width="110" height="26" viewBox="0 0 110 26" fill="none" xmlns="http://www.w3.org/2000/svg">
<path d="M0 3.71429L11.9683 0L23.9524 4.53968L16.7094 8.56768H12.8664V21.0477H10.9449V8.56768H7.20086L0 3.71429Z" fill="#C43F76"/>
<path d="M21.0801 21.2458C20.1424 21.2458 19.3368 21.0609 18.6633 20.6911C17.9898 20.3081 17.4681 19.7931 17.0984 19.146C16.7418 18.4856 16.5635 17.7329 16.5635 16.8877C16.5635 16.0821 16.7682 15.3491 17.1776 14.6888C17.587 14.0285 18.135 13.5003 18.8218 13.1041C19.5085 12.7079 20.2745 12.5098 21.1197 12.5098C22.2026 12.5098 23.1006 12.8267 23.8138 13.4606C24.5269 14.0945 25.009 14.9662 25.2599 16.0755L18.5048 18.4526L18.069 17.3631L23.6157 15.3425L23.2195 15.6001C23.061 15.1643 22.7969 14.7879 22.4271 14.4709C22.0573 14.1408 21.5753 13.9757 20.981 13.9757C20.4792 13.9757 20.0302 14.1011 19.634 14.3521C19.2378 14.5898 18.9274 14.9199 18.7029 15.3425C18.4784 15.7651 18.3662 16.2472 18.3662 16.7886C18.3662 17.3565 18.485 17.8583 18.7227 18.2942C18.9604 18.7168 19.284 19.0535 19.6934 19.3044C20.116 19.5422 20.5914 19.661 21.1197 19.661C21.4763 19.661 21.8196 19.595 22.1498 19.4629C22.4931 19.3309 22.8101 19.1592 23.1006 18.9479L23.9524 20.3147C23.543 20.5921 23.0808 20.8166 22.5658 20.9883C22.0639 21.1599 21.5687 21.2458 21.0801 21.2458Z" fill="#C43F76"/>
<path d="M29.3115 12.8465L29.47 14.8473L29.3908 14.5303C29.6549 13.9229 30.0841 13.4408 30.6784 13.0843C31.2727 12.7145 31.9594 12.5296 32.7386 12.5296C33.5178 12.5296 34.1517 12.7607 34.6403 13.2229C35.1421 13.6719 35.3997 14.2596 35.4129 14.986V21.0477H33.5508V15.6397C33.5376 15.1907 33.4055 14.8275 33.1546 14.5502C32.9169 14.2596 32.5405 14.1143 32.0254 14.1143C31.55 14.1143 31.1208 14.2464 30.7378 14.5105C30.3548 14.7747 30.0511 15.1378 29.8266 15.6001C29.6153 16.0623 29.5096 16.5971 29.5096 17.2046V21.0477H27.6673V12.8465H29.3115Z" fill="#C43F76"/>
<path d="M42.0438 21.2458C41.291 21.2458 40.6043 21.0675 39.9836 20.7109C39.3761 20.3411 38.8941 19.8261 38.5375 19.1658C38.1809 18.4923 38.0027 17.7197 38.0027 16.8481C38.0027 15.9368 38.1875 15.1576 38.5573 14.5105C38.9403 13.8634 39.4554 13.3682 40.1025 13.0248C40.7496 12.6815 41.4759 12.5098 42.2815 12.5098C42.9286 12.5098 43.5427 12.6484 44.1238 12.9258C44.7181 13.2031 45.1803 13.5861 45.5105 14.0747L45.4312 14.7284V5.71511L47.2537 2.47619V21.0477H45.4114V19.0073L45.6095 19.5223C45.2265 20.0242 44.7313 20.4402 44.1238 20.7703C43.5163 21.0873 42.823 21.2458 42.0438 21.2458ZM42.6183 19.6808C43.1069 19.6808 43.5427 19.595 43.9257 19.4233C44.3087 19.2384 44.6256 18.9875 44.8766 18.6705C45.1275 18.3536 45.3058 17.9772 45.4114 17.5414V15.9963C45.3058 15.6001 45.1143 15.2567 44.8369 14.9662C44.5728 14.6624 44.2493 14.4247 43.8663 14.253C43.4965 14.0681 43.0805 13.9757 42.6183 13.9757C42.1164 13.9757 41.6542 14.1011 41.2316 14.3521C40.8222 14.5898 40.4921 14.9199 40.2411 15.3425C39.9902 15.7651 39.8648 16.2538 39.8648 16.8084C39.8648 17.3499 39.9902 17.8385 40.2411 18.2743C40.4921 18.697 40.8288 19.0403 41.2514 19.3044C41.674 19.5554 42.1296 19.6808 42.6183 19.6808Z" fill="#C43F76"/>
<path d="M54.3608 21.2458C53.4232 21.2458 52.6176 21.0609 51.9441 20.6911C51.2706 20.3081 50.7489 19.7931 50.3791 19.146C50.0226 18.4856 49.8443 17.7329 49.8443 16.8877C49.8443 16.0821 50.049 15.3491 50.4584 14.6888C50.8678 14.0285 51.4158 13.5003 52.1026 13.1041C52.7893 12.7079 53.5553 12.5098 54.4005 12.5098C55.4834 12.5098 56.3814 12.8267 57.0945 13.4606C57.8077 14.0945 58.2897 14.9662 58.5406 16.0755L51.7856 18.4526L51.3498 17.3631L56.8965 15.3425L56.5003 15.6001C56.3418 15.1643 56.0777 14.7879 55.7079 14.4709C55.3381 14.1408 54.8561 13.9757 54.2618 13.9757C53.76 13.9757 53.3109 14.1011 52.9147 14.3521C52.5186 14.5898 52.2082 14.9199 51.9837 15.3425C51.7592 15.7651 51.6469 16.2472 51.6469 16.7886C51.6469 17.3565 51.7658 17.8583 52.0035 18.2942C52.2412 18.7168 52.5648 19.0535 52.9742 19.3044C53.3968 19.5422 53.8722 19.661 54.4005 19.661C54.757 19.661 55.1004 19.595 55.4306 19.4629C55.7739 19.3309 56.0909 19.1592 56.3814 18.9479L57.2332 20.3147C56.8238 20.5921 56.3616 20.8166 55.8466 20.9883C55.3447 21.1599 54.8495 21.2458 54.3608 21.2458Z" fill="#C43F76"/>
<path d="M62.5923 12.8465L62.7706 15.2237L62.6716 14.9067C62.8829 14.4049 63.1866 13.9823 63.5828 13.6389C63.9922 13.2823 64.4148 13.0116 64.8506 12.8267C65.2996 12.6286 65.6892 12.5296 66.0194 12.5296L65.9203 14.3521C65.2996 14.3124 64.7515 14.4313 64.2761 14.7086C63.8139 14.986 63.4441 15.3557 63.1668 15.818C62.9027 16.2802 62.7706 16.7754 62.7706 17.3037V23.9365L60.9481 21.0477V12.8465H62.5923Z" fill="#C43F76"/>
<path d="M79.4696 19.978C79.2318 20.1364 78.9083 20.3147 78.4989 20.5128C78.0895 20.7109 77.6075 20.876 77.0528 21.0081C76.5113 21.1401 75.9171 21.2062 75.27 21.2062C74.1606 21.1929 73.1569 20.9949 72.2589 20.6119C71.3741 20.2289 70.6213 19.7072 70.0006 19.0469C69.3799 18.3866 68.8979 17.6272 68.5545 16.7688C68.2244 15.8972 68.0593 14.9728 68.0593 13.9955C68.0593 12.9258 68.231 11.9419 68.5743 11.0439C68.9309 10.1326 69.4261 9.34685 70.06 8.68654C70.6939 8.01301 71.4401 7.49136 72.2985 7.12158C73.1701 6.75181 74.121 6.56692 75.1511 6.56692C76.0095 6.56692 76.7887 6.68577 77.4886 6.92349C78.1885 7.148 78.7894 7.41873 79.2913 7.73568L78.5187 9.51854C78.1225 9.25441 77.6405 9.00349 77.0726 8.76577C76.5179 8.52806 75.8973 8.4092 75.2105 8.4092C74.5106 8.4092 73.8503 8.54787 73.2296 8.8252C72.6089 9.10254 72.0608 9.49212 71.5854 9.99396C71.1099 10.4958 70.7336 11.0835 70.4562 11.757C70.1921 12.4173 70.06 13.1305 70.06 13.8964C70.06 14.6756 70.1789 15.402 70.4166 16.0755C70.6675 16.7358 71.0175 17.3103 71.4665 17.7989C71.9287 18.2876 72.4834 18.6705 73.1305 18.9479C73.7776 19.2252 74.504 19.3639 75.3096 19.3639C76.0359 19.3639 76.683 19.2516 77.2509 19.0271C77.8188 18.8026 78.2876 18.5517 78.6574 18.2743L79.4696 19.978Z" fill="#C43F76"/>
<path d="M85.7558 21.2458C84.9899 21.2458 84.2899 21.0807 83.656 20.7505C83.0353 20.4204 82.5401 19.9383 82.1703 19.3044C81.8137 18.6573 81.6355 17.8716 81.6355 16.9471C81.6355 16.0359 81.827 15.2501 82.2099 14.5898C82.5929 13.9163 83.1014 13.4012 83.7353 13.0446C84.3824 12.6881 85.0889 12.5098 85.8549 12.5098C86.6209 12.5098 87.268 12.6881 87.7962 13.0446C88.3245 13.388 88.7273 13.7974 89.0046 14.2728L88.8857 14.5898L89.064 12.8465H90.7676L92.4444 26L88.9254 21.0477V18.9083L89.1235 19.3837C89.0706 19.5157 88.9518 19.6874 88.7669 19.8987C88.5952 20.0968 88.3575 20.3015 88.0537 20.5128C87.7632 20.7241 87.4264 20.9024 87.0434 21.0477C86.6605 21.1797 86.2313 21.2458 85.7558 21.2458ZM86.2511 19.7204C86.7133 19.7204 87.1293 19.6346 87.4991 19.4629C87.8689 19.2912 88.1726 19.0535 88.4103 18.7498C88.6612 18.4328 88.8329 18.0564 88.9254 17.6206V16.0161C88.8197 15.6199 88.6348 15.2765 88.3707 14.986C88.1066 14.6822 87.7896 14.4511 87.4198 14.2926C87.0501 14.1209 86.6407 14.0351 86.1916 14.0351C85.703 14.0351 85.254 14.154 84.8446 14.3917C84.4352 14.6294 84.105 14.9596 83.8541 15.3822C83.6164 15.8048 83.4976 16.3 83.4976 16.8679C83.4976 17.3961 83.623 17.8782 83.8739 18.314C84.1249 18.7498 84.4616 19.0931 84.8842 19.3441C85.3068 19.595 85.7624 19.7204 86.2511 19.7204Z" fill="#C43F76"/>
<path d="M95.699 12.8465L95.8773 15.2237L95.7782 14.9067C95.9895 14.4049 96.2933 13.9823 96.6895 13.6389C97.0989 13.2823 97.5215 13.0116 97.9573 12.8267C98.4063 12.6286 98.7959 12.5296 99.126 12.5296L99.027 14.3521C98.4063 14.3124 97.8582 14.4313 97.3828 14.7086C96.9206 14.986 96.5508 15.3557 96.2735 15.818C96.0093 16.2802 95.8773 16.7754 95.8773 17.3037V21.0477H94.0548V12.8465H95.699Z" fill="#C43F76"/>
<path d="M105.057 21.2458C104.119 21.2458 103.314 21.0609 102.64 20.6911C101.967 20.3081 101.445 19.7931 101.075 19.146C100.719 18.4856 100.54 17.7329 100.54 16.8877C100.54 16.0821 100.745 15.3491 101.154 14.6888C101.564 14.0285 102.112 13.5003 102.799 13.1041C103.485 12.7079 104.251 12.5098 105.097 12.5098C106.18 12.5098 107.078 12.8267 107.791 13.4606C108.504 14.0945 108.986 14.9662 109.237 16.0755L102.482 18.4526L102.046 17.3631L107.593 15.3425L107.196 15.6001C107.038 15.1643 106.774 14.7879 106.404 14.4709C106.034 14.1408 105.552 13.9757 104.958 13.9757C104.456 13.9757 104.007 14.1011 103.611 14.3521C103.215 14.5898 102.904 14.9199 102.68 15.3425C102.455 15.7651 102.343 16.2472 102.343 16.7886C102.343 17.3565 102.462 17.8583 102.7 18.2942C102.937 18.7168 103.261 19.0535 103.67 19.3044C104.093 19.5422 104.568 19.661 105.097 19.661C105.453 19.661 105.797 19.595 106.127 19.4629C106.47 19.3309 106.787 19.1592 107.078 18.9479L109.237 20.3147C108.827 20.5921 107.058 20.8166 106.543 20.9883C106.041 21.1599 105.546 21.2458 105.057 21.2458Z" fill="#C43F76"/>
</svg>