<svg width="16" height="16" viewBox="0 0 16 16" fill="none" xmlns="http://www.w3.org/2000/svg">
<g clip-path="url(#clip0_709_7126)">
<path d="M15.0942 8.11525C15.0942 7.61552 15.0537 7.1131 14.9672 6.62148H8.0332V9.45235H12.004C11.8392 10.3654 11.3098 11.173 10.5345 11.6862V13.5231H12.9035C14.2946 12.2427 15.0942 10.3519 15.0942 8.11525Z" fill="#4285F4"/>
<path d="M8.03322 15.2978C10.0159 15.2978 11.688 14.6468 12.9062 13.5231L10.5372 11.6862C9.87815 12.1347 9.02727 12.3886 8.03592 12.3886C6.11806 12.3886 4.49193 11.0947 3.90847 9.3551H1.46387V11.2487C2.71183 13.7311 5.25367 15.2978 8.03322 15.2978V15.2978Z" fill="#34A853"/>
<path d="M3.90651 9.35509C3.59858 8.44208 3.59858 7.45344 3.90651 6.54043V4.64688H1.46462C0.42195 6.72411 0.42195 9.17141 1.46462 11.2486L3.90651 9.35509V9.35509Z" fill="#FBBC04"/>
<path d="M8.03322 3.50426C9.08129 3.48805 10.0942 3.88243 10.8533 4.60636L12.9521 2.50751C11.6231 1.25955 9.85924 0.573444 8.03322 0.595054C5.25367 0.595054 2.71183 2.16176 1.46387 4.64687L3.90576 6.54042C4.48652 4.79814 6.11536 3.50426 8.03322 3.50426V3.50426Z" fill="#EA4335"/>
</g>
<defs>
<clipPath id="clip0_709_7126">
<rect width="14.7027" height="14.7027" fill="white" transform="translate(0.535156 0.594559)"/>
</clipPath>
</defs>
</svg>