<svg width="18" height="26" viewBox="0 0 24 24" fill="none" xmlns="http://www.w3.org/2000/svg">
<path d="M12.1094 2.16074C15.2306 2.16074 15.6002 2.17443 16.8277 2.22919C17.9685 2.27939 18.5845 2.47104 18.9952 2.63075C19.5382 2.84065 19.9307 3.09619 20.3368 3.50231C20.7475 3.91299 20.9984 4.30086 21.2084 4.84388C21.3681 5.25456 21.5597 5.87515 21.6099 7.01138C21.6647 8.24343 21.6784 8.61304 21.6784 11.7297C21.6784 14.8509 21.6647 15.2205 21.6099 16.448C21.5597 17.5888 21.3681 18.2048 21.2084 18.6155C20.9984 19.1585 20.7429 19.5509 20.3368 19.957C19.9261 20.3677 19.5382 20.6187 18.9952 20.8286C18.5845 20.9883 17.9639 21.18 16.8277 21.2302C15.5957 21.2849 15.2261 21.2986 12.1094 21.2986C8.98822 21.2986 8.6186 21.2849 7.39111 21.2302C6.25032 21.18 5.6343 20.9883 5.22361 20.8286C4.6806 20.6187 4.28817 20.3632 3.88204 19.957C3.47136 19.5464 3.22039 19.1585 3.01048 18.6155C2.85077 18.2048 2.65912 17.5842 2.60892 16.448C2.55417 15.2159 2.54048 14.8463 2.54048 11.7297C2.54048 8.60848 2.55417 8.23887 2.60892 7.01138C2.65912 5.87059 2.85077 5.25456 3.01048 4.84388C3.22039 4.30086 3.47592 3.90843 3.88204 3.50231C4.29273 3.09163 4.6806 2.84065 5.22361 2.63075C5.6343 2.47104 6.25489 2.27939 7.39111 2.22919C8.6186 2.17443 8.98822 2.16074 12.1094 2.16074ZM12.1094 0.0571289C8.93802 0.0571289 8.54103 0.0708184 7.29529 0.125576C6.05411 0.180334 5.2008 0.381113 4.46157 0.668592C3.69039 0.96976 3.03786 1.36675 2.38989 2.01929C1.73736 2.66725 1.34037 3.31978 1.0392 4.08639C0.751719 4.83019 0.55094 5.67894 0.496182 6.92011C0.441424 8.17042 0.427734 8.56741 0.427734 11.7388C0.427734 14.9102 0.441424 15.3072 0.496182 16.5529C0.55094 17.7941 0.751719 18.6474 1.0392 19.3867C1.34037 20.1578 1.73736 20.8104 2.38989 21.4583C3.03786 22.1063 3.69039 22.5079 4.457 22.8045C5.2008 23.0919 6.04954 23.2927 7.29072 23.3475C8.53647 23.4022 8.93346 23.4159 12.1049 23.4159C15.2762 23.4159 15.6732 23.4022 16.919 23.3475C18.1602 23.2927 19.0135 23.0919 19.7527 22.8045C20.5193 22.5079 21.1718 22.1063 21.8198 21.4583C22.4678 20.8104 22.8693 20.1578 23.1659 19.3912C23.4534 18.6474 23.6542 17.7987 23.709 16.5575C23.7637 15.3118 23.7774 14.9148 23.7774 11.7434C23.7774 8.57198 23.7637 8.17498 23.709 6.92924C23.6542 5.68806 23.4534 4.83475 23.1659 4.09552C22.8785 3.31978 22.4815 2.66725 21.8289 2.01929C21.181 1.37132 20.5284 0.96976 19.7618 0.673155C19.018 0.385676 18.1693 0.184897 16.9281 0.130139C15.6778 0.0708184 15.2808 0.0571289 12.1094 0.0571289Z" fill="#F9FDFF"/>
<path d="M12.1095 5.73745C8.79662 5.73745 6.10892 8.42515 6.10892 11.738C6.10892 15.0509 8.79662 17.7385 12.1095 17.7385C15.4223 17.7385 18.11 15.0509 18.11 11.738C18.11 8.42515 15.4223 5.73745 12.1095 5.73745ZM12.1095 15.6304C9.96023 15.6304 8.2171 13.8872 8.2171 11.738C8.2171 9.58875 9.96023 7.84563 12.1095 7.84563C14.2587 7.84563 16.0018 9.58875 16.0018 11.738C16.0018 13.8872 14.2587 15.6304 12.1095 15.6304Z" fill="#F9FDFF"/>
<path d="M19.7481 5.5022C19.7481 6.27793 19.1184 6.90309 18.3472 6.90309C17.5715 6.90309 16.9463 6.27337 16.9463 5.5022C16.9463 4.72646 17.576 4.10131 18.3472 4.10131C19.1184 4.10131 19.7481 4.73102 19.7481 5.5022Z" fill="#F9FDFF"/>
</svg>