<svg width="55" height="18" viewBox="0 0 109 18" fill="none" xmlns="http://www.w3.org/2000/svg">
<path d="M108.042 9L93.0417 0.339746V17.6603L108.042 9ZM0 10.5H3.85863V7.5H0V10.5ZM11.5759 10.5H19.2932V7.5H11.5759V10.5ZM27.0104 10.5H34.7277V7.5H27.0104V10.5ZM42.4449 10.5H50.1622V7.5H42.4449V10.5ZM57.8795 10.5H65.5967V7.5H57.8795V10.5ZM73.314 10.5H81.0312V7.5H73.314V10.5ZM88.7485 10.5H96.4658V7.5H88.7485V10.5Z" fill="#D77EA3"/>
<path d="M108.042 9L93.0417 0.339746V17.6603L108.042 9ZM0 10.5H3.85863V7.5H0V10.5ZM11.5759 10.5H19.2932V7.5H11.5759V10.5ZM27.0104 10.5H34.7277V7.5H27.0104V10.5ZM42.4449 10.5H50.1622V7.5H42.4449V10.5ZM57.8795 10.5H65.5967V7.5H57.8795V10.5ZM73.314 10.5H81.0312V7.5H73.314V10.5ZM88.7485 10.5H96.4658V7.5H88.7485V10.5Z" fill="black" fill-opacity="0.2"/>
</svg>