<svg width="18" height="23" viewBox="0 0 24 23" fill="none" xmlns="http://www.w3.org/2000/svg">
<path d="M5.32798 2.61957C5.32766 3.26938 5.06921 3.89245 4.60949 4.35171C4.14977 4.81097 3.52645 5.06879 2.87663 5.06847C2.22682 5.06814 1.60375 4.80969 1.14449 4.34998C0.685235 3.89026 0.42741 3.26693 0.427735 2.61712C0.42806 1.9673 0.686508 1.34423 1.14623 0.884972C1.60594 0.425714 2.22927 0.167888 2.87908 0.168213C3.5289 0.168538 4.15197 0.426987 4.61122 0.886705C5.07048 1.34642 5.32831 1.96975 5.32798 2.61957ZM5.40149 6.88279H0.501238V22.2206H5.40149V6.88279ZM13.1439 6.88279H8.26813V22.2206H13.0949V14.1719C13.0949 9.68818 18.9384 9.27166 18.9384 14.1719V22.2206H23.7774V12.5058C23.7774 4.94719 15.1285 5.22895 13.0949 8.94089L13.1439 6.88279Z" fill="#F9FDFF"/>
</svg>