<svg width="28" height="29" viewBox="0 0 28 29" fill="none" xmlns="http://www.w3.org/2000/svg">
<path fill-rule="evenodd" clip-rule="evenodd" d="M12.75 0.250245C12.9109 0.249991 13.0676 0.301471 13.1969 0.397086C13.3263 0.492701 13.4215 0.627382 13.4685 0.781245L16.3605 10.2807L25.008 13.4412C25.1506 13.4935 25.274 13.5878 25.3618 13.7117C25.4497 13.8356 25.4978 13.9832 25.4999 14.135C25.502 14.2869 25.458 14.4358 25.3736 14.5621C25.2893 14.6884 25.1686 14.7861 25.0275 14.8422L16.437 18.2547L13.4685 28.2147C13.4222 28.3693 13.3273 28.5049 13.1979 28.6013C13.0684 28.6976 12.9114 28.7497 12.75 28.7497C12.5886 28.7497 12.4316 28.6976 12.3021 28.6013C12.1727 28.5049 12.0778 28.3693 12.0315 28.2147L9.063 18.2547L0.472499 14.8422C0.331412 14.7861 0.210707 14.6884 0.12635 14.5621C0.0419931 14.4358 -0.00204087 14.2869 7.26696e-05 14.135C0.00218621 13.9832 0.0503477 13.8356 0.138186 13.7117C0.226025 13.5878 0.349403 13.4935 0.491999 13.4412L9.1395 10.2807L12.033 0.781245C12.0799 0.627627 12.1749 0.493124 12.304 0.397532C12.433 0.301941 12.5894 0.250312 12.75 0.250245ZM12.75 3.57425L10.4655 11.0742C10.4316 11.1854 10.3724 11.2871 10.2925 11.3715C10.2126 11.4558 10.1142 11.5204 10.005 11.5602L2.8545 14.1762L9.9555 16.9962C10.0607 17.0382 10.155 17.1035 10.2314 17.1871C10.3078 17.2708 10.3642 17.3707 10.3965 17.4792L12.7515 25.3752L15.1035 17.4792C15.1358 17.3707 15.1922 17.2708 15.2686 17.1871C15.345 17.1035 15.4393 17.0382 15.5445 16.9962L22.6455 14.1762L15.495 11.5632C15.3858 11.5234 15.2874 11.4588 15.2075 11.3745C15.1276 11.2901 15.0684 11.1884 15.0345 11.0772L12.75 3.57425Z" fill="white"/>
<path d="M24.3753 28.1801C24.2253 28.1801 24.0903 28.0601 24.0753 27.9101C23.8053 25.1801 23.5953 24.3101 21.0903 24.0701C20.9403 24.0551 20.8203 23.9201 20.8203 23.7701C20.8203 23.6201 20.9403 23.4851 21.0903 23.4701C23.6553 23.2301 23.8053 22.5701 24.0753 19.8401C24.0753 19.6901 24.2253 19.5701 24.3753 19.5701C24.5253 19.5701 24.6603 19.6901 24.6753 19.8401C24.9453 22.5701 25.1103 23.2301 27.6603 23.4701C27.8103 23.4851 27.9303 23.6201 27.9303 23.7701C27.9303 23.9201 27.8103 24.0551 27.6603 24.0701C25.1403 24.3101 24.9453 25.1801 24.6753 27.9251C24.6753 28.0751 24.5403 28.1951 24.3753 28.1951V28.1801Z" fill="white"/>
</svg>