<svg width="19" height="26" viewBox="0 0 28 23" fill="none" xmlns="http://www.w3.org/2000/svg">
<path d="M9.10652 22.4297C19.2708 22.4297 24.8318 14.0067 24.8318 6.70446C24.8318 6.46766 24.8265 6.22561 24.816 5.98881C25.8978 5.20649 26.8313 4.23746 27.5728 3.12728C26.5653 3.57553 25.4956 3.86828 24.4003 3.99553C25.5536 3.30421 26.4171 2.21819 26.8308 0.938774C25.7459 1.58178 24.5593 2.03536 23.3221 2.28008C22.4884 1.39431 21.3862 0.807824 20.1859 0.611299C18.9855 0.414774 17.7538 0.619156 16.6812 1.19285C15.6087 1.76654 14.7549 2.67758 14.2521 3.78513C13.7492 4.89267 13.6252 6.13503 13.8992 7.32012C11.7023 7.20988 9.55306 6.63917 7.59084 5.64501C5.62862 4.65084 3.89722 3.25541 2.5089 1.54918C1.80328 2.76575 1.58736 4.20535 1.90502 5.5754C2.22268 6.94545 3.05009 8.14314 4.21908 8.92506C3.34147 8.8972 2.48309 8.66091 1.71485 8.23573V8.30414C1.71407 9.58084 2.15543 10.8184 2.96393 11.8065C3.77243 12.7946 4.89815 13.4722 6.14975 13.7241C5.33678 13.9465 4.48354 13.9789 3.65604 13.8188C4.00922 14.9168 4.69637 15.8771 5.6216 16.5657C6.54682 17.2544 7.66396 17.637 8.8171 17.6601C6.85941 19.1979 4.44109 20.032 1.95165 20.0281C1.51016 20.0274 1.06911 20.0004 0.630859 19.9471C3.15987 21.5696 6.10179 22.4313 9.10652 22.4297Z" fill="#F9FDFF"/>
</svg>